<svg width="142" height="108" viewBox="0 0 142 108" fill="none" xmlns="http://www.w3.org/2000/svg">
<rect x="-1.44113" y="-0.274035" width="65.0078" height="29.5319" rx="14.766" transform="matrix(-0.847538 0.530734 -0.593588 -0.804769 73.2462 26.1463)" fill="url(#paint0_linear_53_173)" stroke="#3E3E3E" stroke-width="2"/>
<rect x="-0.121466" y="-1.35075" width="64.5036" height="29.782" rx="14.891" transform="matrix(-0.792749 -0.609548 0.671283 -0.741201 53.4097 80.3817)" fill="url(#paint1_linear_53_173)" stroke="#3E3E3E" stroke-width="2"/>
<rect x="1.44113" y="0.274035" width="65.0078" height="29.5319" rx="14.766" transform="matrix(0.847538 -0.530734 0.593588 0.804769 65.9856 82.9424)" fill="url(#paint2_linear_53_173)" stroke="#3E3E3E" stroke-width="2"/>
<rect x="0.121466" y="1.35075" width="64.5036" height="29.782" rx="14.891" transform="matrix(0.792749 0.609548 -0.671283 0.741201 90.2112 25.4679)" fill="url(#paint3_linear_53_173)" stroke="#3E3E3E" stroke-width="2"/>
<defs>
<linearGradient id="paint0_linear_53_173" x1="66.8143" y1="17.6598" x2="1.4351" y2="9.7349" gradientUnits="userSpaceOnUse">
<stop stop-color="#F5BF00"/>
<stop offset="1" stop-color="#50AA57"/>
</linearGradient>
<linearGradient id="paint1_linear_53_173" x1="66.4944" y1="15.007" x2="0.575983" y2="21.2935" gradientUnits="userSpaceOnUse">
<stop stop-color="#2196F3"/>
<stop offset="1" stop-color="#EB533D"/>
</linearGradient>
<linearGradient id="paint2_linear_53_173" x1="66.8143" y1="17.6598" x2="1.4351" y2="9.7349" gradientUnits="userSpaceOnUse">
<stop stop-color="#F5BF00"/>
<stop offset="1" stop-color="#50AA57"/>
</linearGradient>
<linearGradient id="paint3_linear_53_173" x1="66.4944" y1="15.007" x2="0.575983" y2="21.2935" gradientUnits="userSpaceOnUse">
<stop stop-color="#2196F3"/>
<stop offset="1" stop-color="#EB533D"/>
</linearGradient>
</defs>
</svg>
