<svg width="1734" height="566" viewBox="0 0 1734 566" fill="none" xmlns="http://www.w3.org/2000/svg">
<circle cx="1519.01" cy="72" r="24" fill="#FBBF0E" stroke="#0E0E0E" stroke-width="2"/>
<rect x="41.034" y="497.39" width="48" height="48" rx="9" transform="rotate(55.6821 41.034 497.39)" fill="#3CAB5A" stroke="#0E0E0E" stroke-width="2"/>
<rect x="170.188" y="103.318" width="25.8572" height="104.397" rx="12.9286" transform="rotate(-147.495 170.188 103.318)" fill="#2196F3" stroke="#0E0E0E" stroke-width="2"/>
<rect x="-1.49395" y="-0.281242" width="34.4341" height="14.6141" rx="7.30705" transform="matrix(-0.867192 0.497974 -0.626755 -0.779216 299.356 271.19)" fill="url(#paint0_linear_231_98)" stroke="#3E3E3E" stroke-width="2"/>
<rect x="-0.114578" y="-1.28775" width="33.8883" height="14.8912" rx="7.44558" transform="matrix(-0.817271 -0.576253 0.702693 -0.711493 290.028 297.72)" fill="url(#paint1_linear_231_98)" stroke="#3E3E3E" stroke-width="2"/>
<rect x="1.49395" y="0.281242" width="34.4341" height="14.6141" rx="7.30705" transform="matrix(0.867192 -0.497974 0.626755 0.779216 296.701 300.86)" fill="url(#paint2_linear_231_98)" stroke="#3E3E3E" stroke-width="2"/>
<rect x="0.114578" y="1.28775" width="33.8883" height="14.8912" rx="7.44558" transform="matrix(0.817271 0.576253 -0.702693 0.711493 310.596 271.315)" fill="url(#paint3_linear_231_98)" stroke="#3E3E3E" stroke-width="2"/>
<rect x="1.49395" y="0.281242" width="34.4341" height="14.6141" rx="7.30705" transform="matrix(0.867192 -0.497974 0.626755 0.779216 296.701 300.86)" fill="url(#paint4_linear_231_98)" stroke="#3E3E3E" stroke-width="2"/>
<rect x="0.114578" y="1.28775" width="33.8883" height="14.8912" rx="7.44558" transform="matrix(0.817271 0.576253 -0.702693 0.711493 310.596 271.315)" fill="url(#paint5_linear_231_98)" stroke="#3E3E3E" stroke-width="2"/>
<rect x="-1.49395" y="-0.281242" width="34.4341" height="14.6141" rx="7.30705" transform="matrix(-0.867192 0.497974 -0.626755 -0.779216 1371.36 523.19)" fill="url(#paint6_linear_231_98)" stroke="#3E3E3E" stroke-width="2"/>
<rect x="-0.114578" y="-1.28775" width="33.8883" height="14.8912" rx="7.44558" transform="matrix(-0.817271 -0.576253 0.702693 -0.711493 1362.03 549.72)" fill="url(#paint7_linear_231_98)" stroke="#3E3E3E" stroke-width="2"/>
<rect x="1.49395" y="0.281242" width="34.4341" height="14.6141" rx="7.30705" transform="matrix(0.867192 -0.497974 0.626755 0.779216 1368.71 552.86)" fill="url(#paint8_linear_231_98)" stroke="#3E3E3E" stroke-width="2"/>
<rect x="0.114578" y="1.28775" width="33.8883" height="14.8912" rx="7.44558" transform="matrix(0.817271 0.576253 -0.702693 0.711493 1382.6 523.315)" fill="url(#paint9_linear_231_98)" stroke="#3E3E3E" stroke-width="2"/>
<rect x="1.49395" y="0.281242" width="34.4341" height="14.6141" rx="7.30705" transform="matrix(0.867192 -0.497974 0.626755 0.779216 1368.71 552.86)" fill="url(#paint10_linear_231_98)" stroke="#3E3E3E" stroke-width="2"/>
<rect x="0.114578" y="1.28775" width="33.8883" height="14.8912" rx="7.44558" transform="matrix(0.817271 0.576253 -0.702693 0.711493 1382.6 523.315)" fill="url(#paint11_linear_231_98)" stroke="#3E3E3E" stroke-width="2"/>
<path d="M1659.93 351.783C1660.87 348.836 1664.66 348.026 1666.72 350.331L1715.06 404.347C1717.11 406.636 1715.92 410.284 1712.92 410.926L1642.55 425.97C1639.54 426.612 1636.96 423.769 1637.9 420.843L1659.93 351.783Z" fill="#EB4A3D" stroke="#0E0E0E" stroke-width="2"/>
<defs>
<linearGradient id="paint0_linear_231_98" x1="36.3289" y1="9.30492" x2="0.813687" y2="4.86242" gradientUnits="userSpaceOnUse">
<stop stop-color="#F5BF00"/>
<stop offset="1" stop-color="#50AA57"/>
</linearGradient>
<linearGradient id="paint1_linear_231_98" x1="35.8834" y1="7.97576" x2="0.320763" y2="11.4194" gradientUnits="userSpaceOnUse">
<stop stop-color="#2196F3"/>
<stop offset="1" stop-color="#EB533D"/>
</linearGradient>
<linearGradient id="paint2_linear_231_98" x1="36.3289" y1="9.30492" x2="0.813687" y2="4.86242" gradientUnits="userSpaceOnUse">
<stop stop-color="#F5BF00"/>
<stop offset="1" stop-color="#50AA57"/>
</linearGradient>
<linearGradient id="paint3_linear_231_98" x1="35.8834" y1="7.97576" x2="0.320763" y2="11.4194" gradientUnits="userSpaceOnUse">
<stop stop-color="#2196F3"/>
<stop offset="1" stop-color="#EB533D"/>
</linearGradient>
<linearGradient id="paint4_linear_231_98" x1="36.3289" y1="9.30492" x2="0.813687" y2="4.86242" gradientUnits="userSpaceOnUse">
<stop stop-color="#F5BF00"/>
<stop offset="1" stop-color="#50AA57"/>
</linearGradient>
<linearGradient id="paint5_linear_231_98" x1="35.8834" y1="7.97576" x2="0.320763" y2="11.4194" gradientUnits="userSpaceOnUse">
<stop stop-color="#2196F3"/>
<stop offset="1" stop-color="#EB533D"/>
</linearGradient>
<linearGradient id="paint6_linear_231_98" x1="36.3289" y1="9.30492" x2="0.813687" y2="4.86242" gradientUnits="userSpaceOnUse">
<stop stop-color="#F5BF00"/>
<stop offset="1" stop-color="#50AA57"/>
</linearGradient>
<linearGradient id="paint7_linear_231_98" x1="35.8834" y1="7.97576" x2="0.320763" y2="11.4194" gradientUnits="userSpaceOnUse">
<stop stop-color="#2196F3"/>
<stop offset="1" stop-color="#EB533D"/>
</linearGradient>
<linearGradient id="paint8_linear_231_98" x1="36.3289" y1="9.30492" x2="0.813687" y2="4.86242" gradientUnits="userSpaceOnUse">
<stop stop-color="#F5BF00"/>
<stop offset="1" stop-color="#50AA57"/>
</linearGradient>
<linearGradient id="paint9_linear_231_98" x1="35.8834" y1="7.97576" x2="0.320763" y2="11.4194" gradientUnits="userSpaceOnUse">
<stop stop-color="#2196F3"/>
<stop offset="1" stop-color="#EB533D"/>
</linearGradient>
<linearGradient id="paint10_linear_231_98" x1="36.3289" y1="9.30492" x2="0.813687" y2="4.86242" gradientUnits="userSpaceOnUse">
<stop stop-color="#F5BF00"/>
<stop offset="1" stop-color="#50AA57"/>
</linearGradient>
<linearGradient id="paint11_linear_231_98" x1="35.8834" y1="7.97576" x2="0.320763" y2="11.4194" gradientUnits="userSpaceOnUse">
<stop stop-color="#2196F3"/>
<stop offset="1" stop-color="#EB533D"/>
</linearGradient>
</defs>
</svg>
